<svg aria-hidden="true" style="position: absolute; width: 0; height: 0; overflow: hidden;" version="1.1"
    xmlns="http://www.w3.org/2000/svg" xmlns:xlink="http://www.w3.org/1999/xlink">
    <defs>
        <symbol id="icon-logo" viewBox="0 0 111 32">
            <path
                d="M47.038 12.473h-3.636v18.342h-4.156v-18.342h-2.997v-3.796h2.997v-7.433h4.156v7.433h3.636v3.796zM71.347 19.466c0 0.693-0.040 1.385-0.12 2.078h-18.342c0.426 1.758 1.292 3.21 2.597 4.356 1.332 1.119 2.89 1.678 4.675 1.678 1.305 0 2.531-0.333 3.676-0.999 1.172-0.666 2.051-1.572 2.637-2.717h4.156c-0.853 2.264-2.238 4.089-4.156 5.474-1.918 1.359-4.076 2.038-6.473 2.038-3.117 0-5.781-1.159-7.992-3.477-2.185-2.318-3.277-5.048-3.277-8.192 0-3.223 1.092-5.967 3.277-8.232s4.875-3.397 8.072-3.397c3.117 0 5.768 1.119 7.952 3.357 2.211 2.238 3.317 4.915 3.317 8.032zM67.191 18.347c-0.107-1.812-0.879-3.343-2.318-4.595-1.412-1.252-3.024-1.878-4.835-1.878s-3.437 0.626-4.875 1.878c-1.412 1.252-2.171 2.784-2.278 4.595h14.306zM85.077 12.353c-1.039 0-2.038 0.266-2.997 0.799-1.625 0.826-2.438 2.677-2.438 5.554v12.108h-4.156v-22.138h3.876v1.998h0.080c1.172-1.652 3.050-2.517 5.634-2.597v4.276zM109.472 19.466c0 0.693-0.040 1.385-0.12 2.078h-18.342c0.426 1.758 1.292 3.21 2.597 4.356 1.332 1.119 2.89 1.678 4.675 1.678 1.305 0 2.531-0.333 3.676-0.999 1.172-0.666 2.051-1.572 2.637-2.717h4.156c-0.852 2.264-2.238 4.089-4.156 5.474-1.918 1.359-4.076 2.038-6.473 2.038-3.117 0-5.781-1.159-7.992-3.477-2.184-2.318-3.277-5.048-3.277-8.192 0-3.223 1.092-5.967 3.277-8.232s4.875-3.397 8.072-3.397c3.117 0 5.767 1.119 7.952 3.357 2.211 2.238 3.317 4.915 3.317 8.032zM105.317 18.347c-0.107-1.812-0.879-3.343-2.318-4.595-1.412-1.252-3.024-1.878-4.835-1.878s-3.437 0.626-4.875 1.878c-1.412 1.252-2.171 2.784-2.278 4.595h14.306z">
            </path>
            <path
                d="M30.663 10.052l-0.078-0.189-3.064 3.080 0.020 0.075c0.24 0.913 0.359 1.857 0.359 2.831 0 6.323-5.14 11.463-11.463 11.463-6.339 0-11.478-5.14-11.478-11.463 0-0.99 0.12-1.948 0.359-2.861l0.020-0.075-3.064-3.081-0.077 0.19c-0.734 1.804-1.147 3.762-1.147 5.827 0 8.474 6.898 15.373 15.373 15.373s15.373-6.898 15.373-15.373c0-2.049-0.398-4.007-1.132-5.798zM25.953 9.481l0.092 0.137 2.807-2.807-0.069-0.094c-2.799-3.778-7.296-6.241-12.359-6.241-5.048 0-9.545 2.448-12.344 6.226l-0.070 0.094 2.807 2.807 0.092-0.137c1.738-2.592 4.51-4.435 7.717-4.945 0.584-0.090 1.184-0.135 1.798-0.135s1.214 0.045 1.799 0.135c3.221 0.509 5.993 2.367 7.732 4.96z">
            </path>
            <path d="M18.247 16.346h0.135v-14.386h-3.91v14.386h3.774z"></path>
        </symbol>
        <symbol id="icon-app-store" viewBox="0 0 32 32">
            <path
                d="M15.709 29.258c-7.027 0-12.722-5.696-12.722-12.722s5.696-12.722 12.722-12.722c7.027 0 12.722 5.696 12.722 12.722-0.008 7.023-5.7 12.715-12.722 12.722zM10.273 20.081c-0.164 0-0.327 0.020-0.487 0.058l-0.191 0.052-0.756 1.294c-0.138 0.23-0.182 0.505-0.124 0.767s0.216 0.492 0.438 0.641c0.223 0.15 0.495 0.208 0.759 0.163s0.502-0.19 0.663-0.405l0.079-0.118 1.005-1.744c-0.163-0.218-0.374-0.395-0.617-0.518s-0.511-0.188-0.783-0.19h0.013zM17.25 12.286c-0.396 0.372-0.658 0.864-0.747 1.399-0.142 0.739-0.006 1.504 0.382 2.149l3.868 6.7c0.135 0.226 0.349 0.394 0.601 0.47s0.524 0.054 0.761-0.060c0.236-0.117 0.42-0.318 0.515-0.564s0.092-0.519-0.006-0.764l-0.062-0.127-1.018-1.77h1.514c0.265-0.002 0.52-0.105 0.712-0.288s0.308-0.431 0.324-0.696c0.016-0.265-0.069-0.526-0.237-0.73s-0.409-0.337-0.672-0.372l-0.127-0.008h-2.723l-2.791-4.835-0.291-0.509-0.002 0.004zM8.407 17.617c-0.137 0-0.272 0.028-0.398 0.080s-0.241 0.13-0.337 0.227c-0.096 0.097-0.173 0.212-0.224 0.339s-0.078 0.262-0.077 0.399c0 0.527 0.392 0.972 0.915 1.040l0.127 0.006h9.516c0.105-0.211 0.158-0.445 0.155-0.681s-0.064-0.468-0.176-0.676c-0.095-0.195-0.237-0.363-0.413-0.49s-0.381-0.208-0.596-0.237l-0.154-0.008h-3.246l4.488-7.772c0.138-0.241 0.176-0.527 0.104-0.795-0.051-0.188-0.153-0.359-0.296-0.492s-0.319-0.224-0.511-0.263c-0.191-0.038-0.39-0.023-0.572 0.046s-0.343 0.186-0.462 0.34l-0.079 0.117-0.462 0.807-0.457-0.807c-0.135-0.227-0.35-0.395-0.602-0.471s-0.524-0.054-0.762 0.061c-0.236 0.117-0.42 0.319-0.514 0.565s-0.092 0.519 0.005 0.764l0.062 0.127 1.056 1.857-3.416 5.916h-2.676z">
            </path>
        </symbol>
        <symbol id="icon-circle" viewBox="0 0 32 32">
            <path
                d="M30.429 10.126l-0.078-0.191-3.105 3.121 0.020 0.076c0.243 0.925 0.364 1.881 0.364 2.869 0 6.407-5.208 11.615-11.615 11.615-6.422 0-11.63-5.208-11.63-11.615 0-1.003 0.122-1.974 0.364-2.899l0.020-0.076-3.105-3.121-0.078 0.192c-0.744 1.828-1.162 3.812-1.162 5.905 0 8.586 6.99 15.576 15.576 15.576s15.576-6.99 15.576-15.576c0-2.076-0.403-4.060-1.147-5.874zM25.656 9.548l0.093 0.139 2.844-2.844-0.070-0.095c-2.836-3.828-7.392-6.323-12.523-6.323-5.115 0-9.671 2.48-12.507 6.308l-0.070 0.095 2.844 2.844 0.093-0.139c1.761-2.627 4.57-4.494 7.819-5.010 0.592-0.091 1.199-0.137 1.822-0.137s1.23 0.046 1.822 0.137c3.264 0.516 6.072 2.399 7.834 5.026z">
            </path>
        </symbol>
        <symbol id="icon-play-store" viewBox="0 0 36 32">
            <path
                d="M19.667 15.563l4.301-3.812-13.892-6.921c-0.921-0.441-1.783-0.503-2.54-0.021l12.131 10.754zM24.701 20.027l4.471-2.229c0.873-0.433 1.351-1.047 1.351-1.728 0-0.679-0.479-1.294-1.35-1.728l-4.048-2.015-4.557 4.038 4.132 3.662zM6.788 5.747c-0.093 0.254-0.145 0.538-0.145 0.848v18.958c0 0.491 0.122 0.914 0.343 1.251l11.777-10.44-11.975-10.617zM19.667 17.163l-11.712 10.382c0.224 0.076 0.465 0.116 0.72 0.116 0.454 0 0.927-0.119 1.408-0.356l13.462-6.7-3.878-3.442z">
            </path>
        </symbol>
        <symbol id="icon-burger" viewBox="0 0 32 32">
            <path d="M4 24h24v-2.667h-24v2.667zM4 17.333h24v-2.667h-24v2.667zM4 8v2.667h24v-2.667h-24z"></path>
        </symbol>
        <symbol id="icon-close" viewBox="0 0 32 32">
            <path
                d="M25.333 8.547l-1.88-1.88-7.453 7.453-7.453-7.453-1.88 1.88 7.453 7.453-7.453 7.453 1.88 1.88 7.453-7.453 7.453 7.453 1.88-1.88-7.453-7.453z">
            </path>
        </symbol>
    </defs>
</svg>